<?xml version="1.0" encoding="utf-8" standalone="no"?>
<!DOCTYPE svg PUBLIC "-//W3C//DTD SVG 1.1//EN"
  "http://www.w3.org/Graphics/SVG/1.1/DTD/svg11.dtd">
<svg xmlns:xlink="http://www.w3.org/1999/xlink" width="631.537884pt" height="624.24pt" viewBox="0 0 631.537884 624.24" xmlns="http://www.w3.org/2000/svg" version="1.1">
 <metadata>
  <rdf:RDF xmlns:dc="http://purl.org/dc/elements/1.1/" xmlns:cc="http://creativecommons.org/ns#" xmlns:rdf="http://www.w3.org/1999/02/22-rdf-syntax-ns#">
   <cc:Work>
    <dc:type rdf:resource="http://purl.org/dc/dcmitype/StillImage"/>
    <dc:date>2024-09-07T11:38:58.659652</dc:date>
    <dc:format>image/svg+xml</dc:format>
    <dc:creator>
     <cc:Agent>
      <dc:title>Matplotlib v3.8.4, https://matplotlib.org/</dc:title>
     </cc:Agent>
    </dc:creator>
   </cc:Work>
  </rdf:RDF>
 </metadata>
 <defs>
  <style type="text/css">*{stroke-linejoin: round; stroke-linecap: butt}</style>
 </defs>
 <g id="figure_1">
  <g id="patch_1">
   <path d="M 0 624.24 
L 631.537884 624.24 
L 631.537884 0 
L 0 0 
z
" style="fill: #ffffff"/>
  </g>
  <g id="axes_1">
   <g id="patch_2">
    <path d="M 7.2 617.04 
L 621 617.04 
L 621 7.2 
L 7.2 7.2 
z
" style="fill: #ffffff"/>
   </g>
   <g id="matplotlib.axis_1">
    <g id="xtick_1">
     <g id="line2d_1">
      <path d="M 37.639249 617.04 
L 37.639249 7.2 
" clip-path="url(#p8aef5a9749)" style="fill: none; stroke: #b0b0b0; stroke-width: 0.8; stroke-linecap: square"/>
     </g>
    </g>
    <g id="xtick_2">
     <g id="line2d_2">
      <path d="M 116.990785 617.04 
L 116.990785 7.2 
" clip-path="url(#p8aef5a9749)" style="fill: none; stroke: #b0b0b0; stroke-width: 0.8; stroke-linecap: square"/>
     </g>
    </g>
    <g id="xtick_3">
     <g id="line2d_3">
      <path d="M 196.342321 617.04 
L 196.342321 7.2 
" clip-path="url(#p8aef5a9749)" style="fill: none; stroke: #b0b0b0; stroke-width: 0.8; stroke-linecap: square"/>
     </g>
    </g>
    <g id="xtick_4">
     <g id="line2d_4">
      <path d="M 275.693857 617.04 
L 275.693857 7.2 
" clip-path="url(#p8aef5a9749)" style="fill: none; stroke: #b0b0b0; stroke-width: 0.8; stroke-linecap: square"/>
     </g>
    </g>
    <g id="xtick_5">
     <g id="line2d_5">
      <path d="M 355.045392 617.04 
L 355.045392 7.2 
" clip-path="url(#p8aef5a9749)" style="fill: none; stroke: #b0b0b0; stroke-width: 0.8; stroke-linecap: square"/>
     </g>
    </g>
    <g id="xtick_6">
     <g id="line2d_6">
      <path d="M 434.396928 617.04 
L 434.396928 7.2 
" clip-path="url(#p8aef5a9749)" style="fill: none; stroke: #b0b0b0; stroke-width: 0.8; stroke-linecap: square"/>
     </g>
    </g>
    <g id="xtick_7">
     <g id="line2d_7">
      <path d="M 513.748464 617.04 
L 513.748464 7.2 
" clip-path="url(#p8aef5a9749)" style="fill: none; stroke: #b0b0b0; stroke-width: 0.8; stroke-linecap: square"/>
     </g>
    </g>
    <g id="xtick_8">
     <g id="line2d_8">
      <path d="M 593.1 617.04 
L 593.1 7.2 
" clip-path="url(#p8aef5a9749)" style="fill: none; stroke: #b0b0b0; stroke-width: 0.8; stroke-linecap: square"/>
     </g>
    </g>
   </g>
   <g id="matplotlib.axis_2">
    <g id="ytick_1">
     <g id="line2d_9">
      <path d="M 7.2 581.915222 
L 621 581.915222 
" clip-path="url(#p8aef5a9749)" style="fill: none; stroke: #b0b0b0; stroke-width: 0.8; stroke-linecap: square"/>
     </g>
    </g>
    <g id="ytick_2">
     <g id="line2d_10">
      <path d="M 7.2 502.563686 
L 621 502.563686 
" clip-path="url(#p8aef5a9749)" style="fill: none; stroke: #b0b0b0; stroke-width: 0.8; stroke-linecap: square"/>
     </g>
    </g>
    <g id="ytick_3">
     <g id="line2d_11">
      <path d="M 7.2 423.21215 
L 621 423.21215 
" clip-path="url(#p8aef5a9749)" style="fill: none; stroke: #b0b0b0; stroke-width: 0.8; stroke-linecap: square"/>
     </g>
    </g>
    <g id="ytick_4">
     <g id="line2d_12">
      <path d="M 7.2 343.860614 
L 621 343.860614 
" clip-path="url(#p8aef5a9749)" style="fill: none; stroke: #b0b0b0; stroke-width: 0.8; stroke-linecap: square"/>
     </g>
    </g>
    <g id="ytick_5">
     <g id="line2d_13">
      <path d="M 7.2 264.509078 
L 621 264.509078 
" clip-path="url(#p8aef5a9749)" style="fill: none; stroke: #b0b0b0; stroke-width: 0.8; stroke-linecap: square"/>
     </g>
    </g>
    <g id="ytick_6">
     <g id="line2d_14">
      <path d="M 7.2 185.157543 
L 621 185.157543 
" clip-path="url(#p8aef5a9749)" style="fill: none; stroke: #b0b0b0; stroke-width: 0.8; stroke-linecap: square"/>
     </g>
    </g>
    <g id="ytick_7">
     <g id="line2d_15">
      <path d="M 7.2 105.806007 
L 621 105.806007 
" clip-path="url(#p8aef5a9749)" style="fill: none; stroke: #b0b0b0; stroke-width: 0.8; stroke-linecap: square"/>
     </g>
    </g>
    <g id="ytick_8">
     <g id="line2d_16">
      <path d="M 7.2 26.454471 
L 621 26.454471 
" clip-path="url(#p8aef5a9749)" style="fill: none; stroke: #b0b0b0; stroke-width: 0.8; stroke-linecap: square"/>
     </g>
    </g>
   </g>
   <g id="line2d_17">
    <path d="M 196.342321 423.21215 
L 37.639249 185.157543 
" clip-path="url(#p8aef5a9749)" style="fill: none; stroke: #000000; stroke-width: 1.5; stroke-linecap: square"/>
   </g>
   <g id="line2d_18">
    <path d="M 37.639249 185.157543 
L 275.693857 363.698498 
" clip-path="url(#p8aef5a9749)" style="fill: none; stroke: #000000; stroke-width: 1.5; stroke-linecap: square"/>
   </g>
   <g id="line2d_19">
    <path d="M 196.342321 423.21215 
L 275.693857 363.698498 
" clip-path="url(#p8aef5a9749)" style="fill: none; stroke: #000000; stroke-width: 1.5; stroke-linecap: square"/>
   </g>
   <g id="line2d_20">
    <path d="M 355.045392 423.21215 
L 275.693857 363.698498 
" clip-path="url(#p8aef5a9749)" style="fill: none; stroke: #000000; stroke-width: 1.5; stroke-linecap: square"/>
   </g>
   <g id="line2d_21">
    <path d="M 355.045392 423.21215 
L 355.045392 304.184846 
" clip-path="url(#p8aef5a9749)" style="fill: none; stroke: #000000; stroke-width: 1.5; stroke-linecap: square"/>
   </g>
   <g id="line2d_22">
    <path d="M 355.045392 304.184846 
L 275.693857 363.698498 
" clip-path="url(#p8aef5a9749)" style="fill: none; stroke: #000000; stroke-width: 1.5; stroke-linecap: square"/>
   </g>
   <g id="line2d_23">
    <path d="M 355.045392 423.21215 
L 394.72116 363.698498 
" clip-path="url(#p8aef5a9749)" style="fill: none; stroke: #000000; stroke-width: 1.5; stroke-linecap: square"/>
   </g>
   <g id="line2d_24">
    <path d="M 394.72116 363.698498 
L 355.045392 304.184846 
" clip-path="url(#p8aef5a9749)" style="fill: none; stroke: #000000; stroke-width: 1.5; stroke-linecap: square"/>
   </g>
   <g id="line2d_25">
    <path d="M 394.72116 363.698498 
L 513.748464 185.157543 
" clip-path="url(#p8aef5a9749)" style="fill: none; stroke: #000000; stroke-width: 1.5; stroke-linecap: square"/>
   </g>
   <g id="line2d_26">
    <path d="M 513.748464 185.157543 
L 355.045392 304.184846 
" clip-path="url(#p8aef5a9749)" style="fill: none; stroke: #000000; stroke-width: 1.5; stroke-linecap: square"/>
   </g>
   <g id="line2d_27">
    <path d="M 37.639249 502.563686 
L 156.666553 502.563686 
L 196.342321 502.563686 
L 209.038567 502.563686 
L 275.693857 502.563686 
L 355.045392 502.563686 
L 394.72116 502.563686 
L 513.748464 502.563686 
" clip-path="url(#p8aef5a9749)" style="fill: none; stroke: #000000; stroke-width: 1.5; stroke-linecap: square"/>
    <defs>
     <path id="m5d9d011ba0" d="M 0 3 
L 0 -3 
" style="stroke: #000000"/>
    </defs>
    <g clip-path="url(#p8aef5a9749)">
     <use xlink:href="#m5d9d011ba0" x="37.639249" y="502.563686" style="stroke: #000000"/>
     <use xlink:href="#m5d9d011ba0" x="156.666553" y="502.563686" style="stroke: #000000"/>
     <use xlink:href="#m5d9d011ba0" x="196.342321" y="502.563686" style="stroke: #000000"/>
     <use xlink:href="#m5d9d011ba0" x="209.038567" y="502.563686" style="stroke: #000000"/>
     <use xlink:href="#m5d9d011ba0" x="275.693857" y="502.563686" style="stroke: #000000"/>
     <use xlink:href="#m5d9d011ba0" x="355.045392" y="502.563686" style="stroke: #000000"/>
     <use xlink:href="#m5d9d011ba0" x="394.72116" y="502.563686" style="stroke: #000000"/>
     <use xlink:href="#m5d9d011ba0" x="513.748464" y="502.563686" style="stroke: #000000"/>
    </g>
   </g>
   <g id="line2d_28">
    <path d="M 593.1 423.21215 
L 593.1 413.689966 
L 593.1 363.698498 
L 593.1 304.184846 
L 593.1 274.42802 
L 593.1 185.157543 
" clip-path="url(#p8aef5a9749)" style="fill: none; stroke: #000000; stroke-width: 1.5; stroke-linecap: square"/>
    <defs>
     <path id="mf414c5cdcb" d="M 3 0 
L -3 -0 
" style="stroke: #000000"/>
    </defs>
    <g clip-path="url(#p8aef5a9749)">
     <use xlink:href="#mf414c5cdcb" x="593.1" y="423.21215" style="stroke: #000000"/>
     <use xlink:href="#mf414c5cdcb" x="593.1" y="413.689966" style="stroke: #000000"/>
     <use xlink:href="#mf414c5cdcb" x="593.1" y="363.698498" style="stroke: #000000"/>
     <use xlink:href="#mf414c5cdcb" x="593.1" y="304.184846" style="stroke: #000000"/>
     <use xlink:href="#mf414c5cdcb" x="593.1" y="274.42802" style="stroke: #000000"/>
     <use xlink:href="#mf414c5cdcb" x="593.1" y="185.157543" style="stroke: #000000"/>
    </g>
   </g>
   <g id="text_1">
    <!-- $m_0$ -->
    <g transform="translate(103.903702 304.196153) rotate(-303.690068) scale(0.1 -0.1)">
     <defs>
      <path id="DejaVuSans-Oblique-6d" d="M 5747 2113 
L 5338 0 
L 4763 0 
L 5166 2094 
Q 5191 2228 5203 2325 
Q 5216 2422 5216 2491 
Q 5216 2772 5059 2928 
Q 4903 3084 4622 3084 
Q 4203 3084 3875 2770 
Q 3547 2456 3450 1953 
L 3066 0 
L 2491 0 
L 2900 2094 
Q 2925 2209 2937 2307 
Q 2950 2406 2950 2484 
Q 2950 2769 2794 2926 
Q 2638 3084 2363 3084 
Q 1938 3084 1609 2770 
Q 1281 2456 1184 1953 
L 800 0 
L 225 0 
L 909 3500 
L 1484 3500 
L 1375 2956 
Q 1609 3263 1923 3423 
Q 2238 3584 2597 3584 
Q 2978 3584 3223 3384 
Q 3469 3184 3519 2828 
Q 3781 3197 4126 3390 
Q 4472 3584 4856 3584 
Q 5306 3584 5551 3325 
Q 5797 3066 5797 2591 
Q 5797 2488 5784 2364 
Q 5772 2241 5747 2113 
z
" transform="scale(0.015625)"/>
      <path id="DejaVuSans-30" d="M 2034 4250 
Q 1547 4250 1301 3770 
Q 1056 3291 1056 2328 
Q 1056 1369 1301 889 
Q 1547 409 2034 409 
Q 2525 409 2770 889 
Q 3016 1369 3016 2328 
Q 3016 3291 2770 3770 
Q 2525 4250 2034 4250 
z
M 2034 4750 
Q 2819 4750 3233 4129 
Q 3647 3509 3647 2328 
Q 3647 1150 3233 529 
Q 2819 -91 2034 -91 
Q 1250 -91 836 529 
Q 422 1150 422 2328 
Q 422 3509 836 4129 
Q 1250 4750 2034 4750 
z
" transform="scale(0.015625)"/>
     </defs>
     <use xlink:href="#DejaVuSans-Oblique-6d"/>
     <use xlink:href="#DejaVuSans-30" transform="translate(97.412109 -16.40625) scale(0.7)"/>
    </g>
   </g>
   <g id="text_2">
    <!-- $m_1$ -->
    <g transform="translate(144.329323 278.794327) rotate(-323.130102) scale(0.1 -0.1)">
     <defs>
      <path id="DejaVuSans-31" d="M 794 531 
L 1825 531 
L 1825 4091 
L 703 3866 
L 703 4441 
L 1819 4666 
L 2450 4666 
L 2450 531 
L 3481 531 
L 3481 0 
L 794 0 
L 794 531 
z
" transform="scale(0.015625)"/>
     </defs>
     <use xlink:href="#DejaVuSans-Oblique-6d"/>
     <use xlink:href="#DejaVuSans-31" transform="translate(97.412109 -16.40625) scale(0.7)"/>
    </g>
   </g>
   <g id="text_3">
    <!-- $m_2$ -->
    <g transform="translate(236.755319 406.521631) rotate(-36.869898) scale(0.1 -0.1)">
     <defs>
      <path id="DejaVuSans-32" d="M 1228 531 
L 3431 531 
L 3431 0 
L 469 0 
L 469 531 
Q 828 903 1448 1529 
Q 2069 2156 2228 2338 
Q 2531 2678 2651 2914 
Q 2772 3150 2772 3378 
Q 2772 3750 2511 3984 
Q 2250 4219 1831 4219 
Q 1534 4219 1204 4116 
Q 875 4013 500 3803 
L 500 4441 
Q 881 4594 1212 4672 
Q 1544 4750 1819 4750 
Q 2544 4750 2975 4387 
Q 3406 4025 3406 3419 
Q 3406 3131 3298 2873 
Q 3191 2616 2906 2266 
Q 2828 2175 2409 1742 
Q 1991 1309 1228 531 
z
" transform="scale(0.015625)"/>
     </defs>
     <use xlink:href="#DejaVuSans-Oblique-6d"/>
     <use xlink:href="#DejaVuSans-32" transform="translate(97.412109 -16.40625) scale(0.7)"/>
    </g>
   </g>
   <g id="text_4">
    <!-- $m_3$ -->
    <g transform="translate(303.032395 397.821631) rotate(-323.130102) scale(0.1 -0.1)">
     <defs>
      <path id="DejaVuSans-33" d="M 2597 2516 
Q 3050 2419 3304 2112 
Q 3559 1806 3559 1356 
Q 3559 666 3084 287 
Q 2609 -91 1734 -91 
Q 1441 -91 1130 -33 
Q 819 25 488 141 
L 488 750 
Q 750 597 1062 519 
Q 1375 441 1716 441 
Q 2309 441 2620 675 
Q 2931 909 2931 1356 
Q 2931 1769 2642 2001 
Q 2353 2234 1838 2234 
L 1294 2234 
L 1294 2753 
L 1863 2753 
Q 2328 2753 2575 2939 
Q 2822 3125 2822 3475 
Q 2822 3834 2567 4026 
Q 2313 4219 1838 4219 
Q 1578 4219 1281 4162 
Q 984 4106 628 3988 
L 628 4550 
Q 988 4650 1302 4700 
Q 1616 4750 1894 4750 
Q 2613 4750 3031 4423 
Q 3450 4097 3450 3541 
Q 3450 3153 3228 2886 
Q 3006 2619 2597 2516 
z
" transform="scale(0.015625)"/>
     </defs>
     <use xlink:href="#DejaVuSans-Oblique-6d"/>
     <use xlink:href="#DejaVuSans-33" transform="translate(97.412109 -16.40625) scale(0.7)"/>
    </g>
   </g>
   <g id="text_5">
    <!-- $m_4$ -->
    <g transform="translate(365.940776 370.948498) rotate(-90) scale(0.1 -0.1)">
     <defs>
      <path id="DejaVuSans-34" d="M 2419 4116 
L 825 1625 
L 2419 1625 
L 2419 4116 
z
M 2253 4666 
L 3047 4666 
L 3047 1625 
L 3713 1625 
L 3713 1100 
L 3047 1100 
L 3047 0 
L 2419 0 
L 2419 1100 
L 313 1100 
L 313 1709 
L 2253 4666 
z
" transform="scale(0.015625)"/>
     </defs>
     <use xlink:href="#DejaVuSans-Oblique-6d"/>
     <use xlink:href="#DejaVuSans-34" transform="translate(97.412109 -16.40625) scale(0.7)"/>
    </g>
   </g>
   <g id="text_6">
    <!-- $m_5$ -->
    <g transform="translate(316.106854 347.007979) rotate(-36.869898) scale(0.1 -0.1)">
     <defs>
      <path id="DejaVuSans-35" d="M 691 4666 
L 3169 4666 
L 3169 4134 
L 1269 4134 
L 1269 2991 
Q 1406 3038 1543 3061 
Q 1681 3084 1819 3084 
Q 2600 3084 3056 2656 
Q 3513 2228 3513 1497 
Q 3513 744 3044 326 
Q 2575 -91 1722 -91 
Q 1428 -91 1123 -41 
Q 819 9 494 109 
L 494 744 
Q 775 591 1075 516 
Q 1375 441 1709 441 
Q 2250 441 2565 725 
Q 2881 1009 2881 1497 
Q 2881 1984 2565 2268 
Q 2250 2553 1709 2553 
Q 1456 2553 1204 2497 
Q 953 2441 691 2322 
L 691 4666 
z
" transform="scale(0.015625)"/>
     </defs>
     <use xlink:href="#DejaVuSans-Oblique-6d"/>
     <use xlink:href="#DejaVuSans-35" transform="translate(97.412109 -16.40625) scale(0.7)"/>
    </g>
   </g>
   <g id="text_7">
    <!-- $m_6$ -->
    <g transform="translate(379.927207 405.53136) rotate(-56.309932) scale(0.1 -0.1)">
     <defs>
      <path id="DejaVuSans-36" d="M 2113 2584 
Q 1688 2584 1439 2293 
Q 1191 2003 1191 1497 
Q 1191 994 1439 701 
Q 1688 409 2113 409 
Q 2538 409 2786 701 
Q 3034 994 3034 1497 
Q 3034 2003 2786 2293 
Q 2538 2584 2113 2584 
z
M 3366 4563 
L 3366 3988 
Q 3128 4100 2886 4159 
Q 2644 4219 2406 4219 
Q 1781 4219 1451 3797 
Q 1122 3375 1075 2522 
Q 1259 2794 1537 2939 
Q 1816 3084 2150 3084 
Q 2853 3084 3261 2657 
Q 3669 2231 3669 1497 
Q 3669 778 3244 343 
Q 2819 -91 2113 -91 
Q 1303 -91 875 529 
Q 447 1150 447 2328 
Q 447 3434 972 4092 
Q 1497 4750 2381 4750 
Q 2619 4750 2861 4703 
Q 3103 4656 3366 4563 
z
" transform="scale(0.015625)"/>
     </defs>
     <use xlink:href="#DejaVuSans-Oblique-6d"/>
     <use xlink:href="#DejaVuSans-36" transform="translate(97.412109 -16.40625) scale(0.7)"/>
    </g>
   </g>
   <g id="text_8">
    <!-- $m_7$ -->
    <g transform="translate(361.796193 333.952979) rotate(-303.690068) scale(0.1 -0.1)">
     <defs>
      <path id="DejaVuSans-37" d="M 525 4666 
L 3525 4666 
L 3525 4397 
L 1831 0 
L 1172 0 
L 2766 4134 
L 525 4134 
L 525 4666 
z
" transform="scale(0.015625)"/>
     </defs>
     <use xlink:href="#DejaVuSans-Oblique-6d"/>
     <use xlink:href="#DejaVuSans-37" transform="translate(97.412109 -16.40625) scale(0.7)"/>
    </g>
   </g>
   <g id="text_9">
    <!-- $m_8$ -->
    <g transform="translate(459.278743 286.504056) rotate(-56.309932) scale(0.1 -0.1)">
     <defs>
      <path id="DejaVuSans-38" d="M 2034 2216 
Q 1584 2216 1326 1975 
Q 1069 1734 1069 1313 
Q 1069 891 1326 650 
Q 1584 409 2034 409 
Q 2484 409 2743 651 
Q 3003 894 3003 1313 
Q 3003 1734 2745 1975 
Q 2488 2216 2034 2216 
z
M 1403 2484 
Q 997 2584 770 2862 
Q 544 3141 544 3541 
Q 544 4100 942 4425 
Q 1341 4750 2034 4750 
Q 2731 4750 3128 4425 
Q 3525 4100 3525 3541 
Q 3525 3141 3298 2862 
Q 3072 2584 2669 2484 
Q 3125 2378 3379 2068 
Q 3634 1759 3634 1313 
Q 3634 634 3220 271 
Q 2806 -91 2034 -91 
Q 1263 -91 848 271 
Q 434 634 434 1313 
Q 434 1759 690 2068 
Q 947 2378 1403 2484 
z
M 1172 3481 
Q 1172 3119 1398 2916 
Q 1625 2713 2034 2713 
Q 2441 2713 2670 2916 
Q 2900 3119 2900 3481 
Q 2900 3844 2670 4047 
Q 2441 4250 2034 4250 
Q 1625 4250 1398 4047 
Q 1172 3844 1172 3481 
z
" transform="scale(0.015625)"/>
     </defs>
     <use xlink:href="#DejaVuSans-Oblique-6d"/>
     <use xlink:href="#DejaVuSans-38" transform="translate(97.412109 -16.40625) scale(0.7)"/>
    </g>
   </g>
   <g id="text_10">
    <!-- $m_9$ -->
    <g transform="translate(435.134158 257.737501) rotate(-36.869898) scale(0.1 -0.1)">
     <defs>
      <path id="DejaVuSans-39" d="M 703 97 
L 703 672 
Q 941 559 1184 500 
Q 1428 441 1663 441 
Q 2288 441 2617 861 
Q 2947 1281 2994 2138 
Q 2813 1869 2534 1725 
Q 2256 1581 1919 1581 
Q 1219 1581 811 2004 
Q 403 2428 403 3163 
Q 403 3881 828 4315 
Q 1253 4750 1959 4750 
Q 2769 4750 3195 4129 
Q 3622 3509 3622 2328 
Q 3622 1225 3098 567 
Q 2575 -91 1691 -91 
Q 1453 -91 1209 -44 
Q 966 3 703 97 
z
M 1959 2075 
Q 2384 2075 2632 2365 
Q 2881 2656 2881 3163 
Q 2881 3666 2632 3958 
Q 2384 4250 1959 4250 
Q 1534 4250 1286 3958 
Q 1038 3666 1038 3163 
Q 1038 2656 1286 2365 
Q 1534 2075 1959 2075 
z
" transform="scale(0.015625)"/>
     </defs>
     <use xlink:href="#DejaVuSans-Oblique-6d"/>
     <use xlink:href="#DejaVuSans-39" transform="translate(97.412109 -16.40625) scale(0.7)"/>
    </g>
   </g>
   <g id="text_11">
    <!-- $15/2$ -->
    <g transform="translate(88.312901 520.73782) scale(0.08 -0.08)">
     <defs>
      <path id="DejaVuSans-2f" d="M 1625 4666 
L 2156 4666 
L 531 -594 
L 0 -594 
L 1625 4666 
z
" transform="scale(0.015625)"/>
     </defs>
     <use xlink:href="#DejaVuSans-31" transform="translate(0 0.78125)"/>
     <use xlink:href="#DejaVuSans-35" transform="translate(63.623047 0.78125)"/>
     <use xlink:href="#DejaVuSans-2f" transform="translate(127.246094 0.78125)"/>
     <use xlink:href="#DejaVuSans-32" transform="translate(157.3125 0.78125)"/>
    </g>
   </g>
   <g id="text_12">
    <!-- $5/2$ -->
    <g transform="translate(170.184437 520.73782) scale(0.08 -0.08)">
     <use xlink:href="#DejaVuSans-35" transform="translate(0 0.78125)"/>
     <use xlink:href="#DejaVuSans-2f" transform="translate(63.623047 0.78125)"/>
     <use xlink:href="#DejaVuSans-32" transform="translate(93.689453 0.78125)"/>
    </g>
   </g>
   <g id="text_13">
    <!-- $4/5$ -->
    <g transform="translate(196.250444 520.73782) scale(0.08 -0.08)">
     <use xlink:href="#DejaVuSans-34" transform="translate(0 0.09375)"/>
     <use xlink:href="#DejaVuSans-2f" transform="translate(63.623047 0.09375)"/>
     <use xlink:href="#DejaVuSans-35" transform="translate(97.314453 0.09375)"/>
    </g>
   </g>
   <g id="text_14">
    <!-- $21/5$ -->
    <g transform="translate(233.366212 520.73782) scale(0.08 -0.08)">
     <use xlink:href="#DejaVuSans-32" transform="translate(0 0.78125)"/>
     <use xlink:href="#DejaVuSans-31" transform="translate(63.623047 0.78125)"/>
     <use xlink:href="#DejaVuSans-2f" transform="translate(127.246094 0.78125)"/>
     <use xlink:href="#DejaVuSans-35" transform="translate(160.9375 0.78125)"/>
    </g>
   </g>
   <g id="text_15">
    <!-- $5$ -->
    <g transform="translate(312.809625 520.73782) scale(0.08 -0.08)">
     <use xlink:href="#DejaVuSans-35" transform="translate(0 0.09375)"/>
    </g>
   </g>
   <g id="text_16">
    <!-- $5/2$ -->
    <g transform="translate(368.563276 520.73782) scale(0.08 -0.08)">
     <use xlink:href="#DejaVuSans-35" transform="translate(0 0.78125)"/>
     <use xlink:href="#DejaVuSans-2f" transform="translate(63.623047 0.78125)"/>
     <use xlink:href="#DejaVuSans-32" transform="translate(93.689453 0.78125)"/>
    </g>
   </g>
   <g id="text_17">
    <!-- $15/2$ -->
    <g transform="translate(445.394812 520.73782) scale(0.08 -0.08)">
     <use xlink:href="#DejaVuSans-31" transform="translate(0 0.78125)"/>
     <use xlink:href="#DejaVuSans-35" transform="translate(63.623047 0.78125)"/>
     <use xlink:href="#DejaVuSans-2f" transform="translate(127.246094 0.78125)"/>
     <use xlink:href="#DejaVuSans-32" transform="translate(157.3125 0.78125)"/>
    </g>
   </g>
   <g id="text_18">
    <!-- $3/5$ -->
    <g transform="translate(606.497884 420.658558) scale(0.08 -0.08)">
     <use xlink:href="#DejaVuSans-33" transform="translate(0 0.78125)"/>
     <use xlink:href="#DejaVuSans-2f" transform="translate(63.623047 0.78125)"/>
     <use xlink:href="#DejaVuSans-35" transform="translate(97.314453 0.78125)"/>
    </g>
   </g>
   <g id="text_19">
    <!-- $63/20$ -->
    <g transform="translate(601.537884 390.901732) scale(0.08 -0.08)">
     <use xlink:href="#DejaVuSans-36" transform="translate(0 0.78125)"/>
     <use xlink:href="#DejaVuSans-33" transform="translate(63.623047 0.78125)"/>
     <use xlink:href="#DejaVuSans-2f" transform="translate(127.246094 0.78125)"/>
     <use xlink:href="#DejaVuSans-32" transform="translate(157.3125 0.78125)"/>
     <use xlink:href="#DejaVuSans-30" transform="translate(220.935547 0.78125)"/>
    </g>
   </g>
   <g id="text_20">
    <!-- $15/4$ -->
    <g transform="translate(603.937884 336.149172) scale(0.08 -0.08)">
     <use xlink:href="#DejaVuSans-31" transform="translate(0 0.09375)"/>
     <use xlink:href="#DejaVuSans-35" transform="translate(63.623047 0.09375)"/>
     <use xlink:href="#DejaVuSans-2f" transform="translate(127.246094 0.09375)"/>
     <use xlink:href="#DejaVuSans-34" transform="translate(160.9375 0.09375)"/>
    </g>
   </g>
   <g id="text_21">
    <!-- $15/8$ -->
    <g transform="translate(604.137884 291.513933) scale(0.08 -0.08)">
     <use xlink:href="#DejaVuSans-31" transform="translate(0 0.78125)"/>
     <use xlink:href="#DejaVuSans-35" transform="translate(63.623047 0.78125)"/>
     <use xlink:href="#DejaVuSans-2f" transform="translate(127.246094 0.78125)"/>
     <use xlink:href="#DejaVuSans-38" transform="translate(155.9375 0.78125)"/>
    </g>
   </g>
   <g id="text_22">
    <!-- $45/8$ -->
    <g transform="translate(604.137884 232.000282) scale(0.08 -0.08)">
     <use xlink:href="#DejaVuSans-34" transform="translate(0 0.78125)"/>
     <use xlink:href="#DejaVuSans-35" transform="translate(63.623047 0.78125)"/>
     <use xlink:href="#DejaVuSans-2f" transform="translate(127.246094 0.78125)"/>
     <use xlink:href="#DejaVuSans-38" transform="translate(155.9375 0.78125)"/>
    </g>
   </g>
   <g id="patch_3">
    <path d="M 196.342321 423.21215 
L 182.622699 444.579195 
L 210.061943 444.579195 
z
" clip-path="url(#p8aef5a9749)" style="fill: #808080; stroke: #000000; stroke-linejoin: miter"/>
   </g>
   <g id="patch_4">
    <path d="M 196.342321 425.751399 
C 197.015738 425.751399 197.661664 425.483848 198.137841 425.00767 
C 198.614019 424.531493 198.88157 423.885567 198.88157 423.21215 
C 198.88157 422.538733 198.614019 421.892807 198.137841 421.41663 
C 197.661664 420.940452 197.015738 420.672901 196.342321 420.672901 
C 195.668904 420.672901 195.022978 420.940452 194.546801 421.41663 
C 194.070623 421.892807 193.803072 422.538733 193.803072 423.21215 
C 193.803072 423.885567 194.070623 424.531493 194.546801 425.00767 
C 195.022978 425.483848 195.668904 425.751399 196.342321 425.751399 
z
" clip-path="url(#p8aef5a9749)" style="fill: #ffffff; stroke: #000000; stroke-linejoin: miter"/>
   </g>
   <g id="patch_5">
    <path d="M 355.045392 423.21215 
L 341.325771 444.579195 
L 368.765014 444.579195 
z
" clip-path="url(#p8aef5a9749)" style="fill: #808080; stroke: #000000; stroke-linejoin: miter"/>
   </g>
   <g id="patch_6">
    <path d="M 355.045392 425.751399 
C 355.718809 425.751399 356.364735 425.483848 356.840913 425.00767 
C 357.31709 424.531493 357.584642 423.885567 357.584642 423.21215 
C 357.584642 422.538733 357.31709 421.892807 356.840913 421.41663 
C 356.364735 420.940452 355.718809 420.672901 355.045392 420.672901 
C 354.371976 420.672901 353.72605 420.940452 353.249872 421.41663 
C 352.773695 421.892807 352.506143 422.538733 352.506143 423.21215 
C 352.506143 423.885567 352.773695 424.531493 353.249872 425.00767 
C 353.72605 425.483848 354.371976 425.751399 355.045392 425.751399 
z
" clip-path="url(#p8aef5a9749)" style="fill: #ffffff; stroke: #000000; stroke-linejoin: miter"/>
   </g>
   <g id="patch_7">
    <path d="M 196.342321 425.751399 
C 197.015738 425.751399 197.661664 425.483848 198.137841 425.00767 
C 198.614019 424.531493 198.88157 423.885567 198.88157 423.21215 
C 198.88157 422.538733 198.614019 421.892807 198.137841 421.41663 
C 197.661664 420.940452 197.015738 420.672901 196.342321 420.672901 
C 195.668904 420.672901 195.022978 420.940452 194.546801 421.41663 
C 194.070623 421.892807 193.803072 422.538733 193.803072 423.21215 
C 193.803072 423.885567 194.070623 424.531493 194.546801 425.00767 
C 195.022978 425.483848 195.668904 425.751399 196.342321 425.751399 
z
" clip-path="url(#p8aef5a9749)" style="fill: #ffffff; stroke: #000000; stroke-linejoin: miter"/>
   </g>
   <g id="patch_8">
    <path d="M 37.639249 187.696792 
C 38.312666 187.696792 38.958592 187.429241 39.434769 186.953063 
C 39.910947 186.476885 40.178498 185.830959 40.178498 185.157543 
C 40.178498 184.484126 39.910947 183.8382 39.434769 183.362022 
C 38.958592 182.885845 38.312666 182.618294 37.639249 182.618294 
C 36.965832 182.618294 36.319906 182.885845 35.843729 183.362022 
C 35.367551 183.8382 35.1 184.484126 35.1 185.157543 
C 35.1 185.830959 35.367551 186.476885 35.843729 186.953063 
C 36.319906 187.429241 36.965832 187.696792 37.639249 187.696792 
z
" clip-path="url(#p8aef5a9749)" style="fill: #ffffff; stroke: #000000; stroke-linejoin: miter"/>
   </g>
   <g id="patch_9">
    <path d="M 37.639249 187.696792 
C 38.312666 187.696792 38.958592 187.429241 39.434769 186.953063 
C 39.910947 186.476885 40.178498 185.830959 40.178498 185.157543 
C 40.178498 184.484126 39.910947 183.8382 39.434769 183.362022 
C 38.958592 182.885845 38.312666 182.618294 37.639249 182.618294 
C 36.965832 182.618294 36.319906 182.885845 35.843729 183.362022 
C 35.367551 183.8382 35.1 184.484126 35.1 185.157543 
C 35.1 185.830959 35.367551 186.476885 35.843729 186.953063 
C 36.319906 187.429241 36.965832 187.696792 37.639249 187.696792 
z
" clip-path="url(#p8aef5a9749)" style="fill: #ffffff; stroke: #000000; stroke-linejoin: miter"/>
   </g>
   <g id="patch_10">
    <path d="M 275.693857 366.237747 
C 276.367273 366.237747 277.013199 365.970196 277.489377 365.494019 
C 277.965554 365.017841 278.233106 364.371915 278.233106 363.698498 
C 278.233106 363.025082 277.965554 362.379156 277.489377 361.902978 
C 277.013199 361.4268 276.367273 361.159249 275.693857 361.159249 
C 275.02044 361.159249 274.374514 361.4268 273.898336 361.902978 
C 273.422159 362.379156 273.154608 363.025082 273.154608 363.698498 
C 273.154608 364.371915 273.422159 365.017841 273.898336 365.494019 
C 274.374514 365.970196 275.02044 366.237747 275.693857 366.237747 
z
" clip-path="url(#p8aef5a9749)" style="fill: #ffffff; stroke: #000000; stroke-linejoin: miter"/>
   </g>
   <g id="patch_11">
    <path d="M 275.693857 366.237747 
C 276.367273 366.237747 277.013199 365.970196 277.489377 365.494019 
C 277.965554 365.017841 278.233106 364.371915 278.233106 363.698498 
C 278.233106 363.025082 277.965554 362.379156 277.489377 361.902978 
C 277.013199 361.4268 276.367273 361.159249 275.693857 361.159249 
C 275.02044 361.159249 274.374514 361.4268 273.898336 361.902978 
C 273.422159 362.379156 273.154608 363.025082 273.154608 363.698498 
C 273.154608 364.371915 273.422159 365.017841 273.898336 365.494019 
C 274.374514 365.970196 275.02044 366.237747 275.693857 366.237747 
z
" clip-path="url(#p8aef5a9749)" style="fill: #ffffff; stroke: #000000; stroke-linejoin: miter"/>
   </g>
   <g id="patch_12">
    <path d="M 355.045392 425.751399 
C 355.718809 425.751399 356.364735 425.483848 356.840913 425.00767 
C 357.31709 424.531493 357.584642 423.885567 357.584642 423.21215 
C 357.584642 422.538733 357.31709 421.892807 356.840913 421.41663 
C 356.364735 420.940452 355.718809 420.672901 355.045392 420.672901 
C 354.371976 420.672901 353.72605 420.940452 353.249872 421.41663 
C 352.773695 421.892807 352.506143 422.538733 352.506143 423.21215 
C 352.506143 423.885567 352.773695 424.531493 353.249872 425.00767 
C 353.72605 425.483848 354.371976 425.751399 355.045392 425.751399 
z
" clip-path="url(#p8aef5a9749)" style="fill: #ffffff; stroke: #000000; stroke-linejoin: miter"/>
   </g>
   <g id="patch_13">
    <path d="M 355.045392 306.724096 
C 355.718809 306.724096 356.364735 306.456544 356.840913 305.980367 
C 357.31709 305.504189 357.584642 304.858263 357.584642 304.184846 
C 357.584642 303.51143 357.31709 302.865504 356.840913 302.389326 
C 356.364735 301.913149 355.718809 301.645597 355.045392 301.645597 
C 354.371976 301.645597 353.72605 301.913149 353.249872 302.389326 
C 352.773695 302.865504 352.506143 303.51143 352.506143 304.184846 
C 352.506143 304.858263 352.773695 305.504189 353.249872 305.980367 
C 353.72605 306.456544 354.371976 306.724096 355.045392 306.724096 
z
" clip-path="url(#p8aef5a9749)" style="fill: #ffffff; stroke: #000000; stroke-linejoin: miter"/>
   </g>
   <g id="patch_14">
    <path d="M 355.045392 306.724096 
C 355.718809 306.724096 356.364735 306.456544 356.840913 305.980367 
C 357.31709 305.504189 357.584642 304.858263 357.584642 304.184846 
C 357.584642 303.51143 357.31709 302.865504 356.840913 302.389326 
C 356.364735 301.913149 355.718809 301.645597 355.045392 301.645597 
C 354.371976 301.645597 353.72605 301.913149 353.249872 302.389326 
C 352.773695 302.865504 352.506143 303.51143 352.506143 304.184846 
C 352.506143 304.858263 352.773695 305.504189 353.249872 305.980367 
C 353.72605 306.456544 354.371976 306.724096 355.045392 306.724096 
z
" clip-path="url(#p8aef5a9749)" style="fill: #ffffff; stroke: #000000; stroke-linejoin: miter"/>
   </g>
   <g id="patch_15">
    <path d="M 394.72116 366.237747 
C 395.394577 366.237747 396.040503 365.970196 396.516681 365.494019 
C 396.992858 365.017841 397.26041 364.371915 397.26041 363.698498 
C 397.26041 363.025082 396.992858 362.379156 396.516681 361.902978 
C 396.040503 361.4268 395.394577 361.159249 394.72116 361.159249 
C 394.047744 361.159249 393.401818 361.4268 392.92564 361.902978 
C 392.449463 362.379156 392.181911 363.025082 392.181911 363.698498 
C 392.181911 364.371915 392.449463 365.017841 392.92564 365.494019 
C 393.401818 365.970196 394.047744 366.237747 394.72116 366.237747 
z
" clip-path="url(#p8aef5a9749)" style="fill: #ffffff; stroke: #000000; stroke-linejoin: miter"/>
   </g>
   <g id="patch_16">
    <path d="M 394.72116 366.237747 
C 395.394577 366.237747 396.040503 365.970196 396.516681 365.494019 
C 396.992858 365.017841 397.26041 364.371915 397.26041 363.698498 
C 397.26041 363.025082 396.992858 362.379156 396.516681 361.902978 
C 396.040503 361.4268 395.394577 361.159249 394.72116 361.159249 
C 394.047744 361.159249 393.401818 361.4268 392.92564 361.902978 
C 392.449463 362.379156 392.181911 363.025082 392.181911 363.698498 
C 392.181911 364.371915 392.449463 365.017841 392.92564 365.494019 
C 393.401818 365.970196 394.047744 366.237747 394.72116 366.237747 
z
" clip-path="url(#p8aef5a9749)" style="fill: #ffffff; stroke: #000000; stroke-linejoin: miter"/>
   </g>
   <g id="patch_17">
    <path d="M 513.748464 187.696792 
C 514.421881 187.696792 515.067807 187.429241 515.543984 186.953063 
C 516.020162 186.476885 516.287713 185.830959 516.287713 185.157543 
C 516.287713 184.484126 516.020162 183.8382 515.543984 183.362022 
C 515.067807 182.885845 514.421881 182.618294 513.748464 182.618294 
C 513.075047 182.618294 512.429121 182.885845 511.952944 183.362022 
C 511.476766 183.8382 511.209215 184.484126 511.209215 185.157543 
C 511.209215 185.830959 511.476766 186.476885 511.952944 186.953063 
C 512.429121 187.429241 513.075047 187.696792 513.748464 187.696792 
z
" clip-path="url(#p8aef5a9749)" style="fill: #ffffff; stroke: #000000; stroke-linejoin: miter"/>
   </g>
   <g id="patch_18">
    <path d="M 513.748464 187.696792 
C 514.421881 187.696792 515.067807 187.429241 515.543984 186.953063 
C 516.020162 186.476885 516.287713 185.830959 516.287713 185.157543 
C 516.287713 184.484126 516.020162 183.8382 515.543984 183.362022 
C 515.067807 182.885845 514.421881 182.618294 513.748464 182.618294 
C 513.075047 182.618294 512.429121 182.885845 511.952944 183.362022 
C 511.476766 183.8382 511.209215 184.484126 511.209215 185.157543 
C 511.209215 185.830959 511.476766 186.476885 511.952944 186.953063 
C 512.429121 187.429241 513.075047 187.696792 513.748464 187.696792 
z
" clip-path="url(#p8aef5a9749)" style="fill: #ffffff; stroke: #000000; stroke-linejoin: miter"/>
   </g>
   <g id="text_23">
    <!-- $n_0$ -->
    <g style="fill: #0000ff" transform="translate(190.792321 419.545432) scale(0.1 -0.1)">
     <defs>
      <path id="DejaVuSans-Oblique-6e" d="M 3566 2113 
L 3156 0 
L 2578 0 
L 2988 2091 
Q 3016 2238 3031 2350 
Q 3047 2463 3047 2528 
Q 3047 2791 2881 2937 
Q 2716 3084 2419 3084 
Q 1956 3084 1622 2776 
Q 1288 2469 1184 1941 
L 800 0 
L 225 0 
L 903 3500 
L 1478 3500 
L 1363 2950 
Q 1603 3253 1940 3418 
Q 2278 3584 2650 3584 
Q 3113 3584 3367 3334 
Q 3622 3084 3622 2631 
Q 3622 2519 3608 2391 
Q 3594 2263 3566 2113 
z
" transform="scale(0.015625)"/>
     </defs>
     <use xlink:href="#DejaVuSans-Oblique-6e"/>
     <use xlink:href="#DejaVuSans-30" transform="translate(63.378906 -16.40625) scale(0.7)"/>
    </g>
   </g>
   <g id="text_24">
    <!-- $n_1$ -->
    <g style="fill: #0000ff" transform="translate(32.089249 181.490824) scale(0.1 -0.1)">
     <use xlink:href="#DejaVuSans-Oblique-6e"/>
     <use xlink:href="#DejaVuSans-31" transform="translate(63.378906 -16.40625) scale(0.7)"/>
    </g>
   </g>
   <g id="text_25">
    <!-- $n_2$ -->
    <g style="fill: #0000ff" transform="translate(270.143857 360.03178) scale(0.1 -0.1)">
     <use xlink:href="#DejaVuSans-Oblique-6e"/>
     <use xlink:href="#DejaVuSans-32" transform="translate(63.378906 -16.40625) scale(0.7)"/>
    </g>
   </g>
   <g id="text_26">
    <!-- $n_3$ -->
    <g style="fill: #0000ff" transform="translate(349.495392 419.545432) scale(0.1 -0.1)">
     <use xlink:href="#DejaVuSans-Oblique-6e"/>
     <use xlink:href="#DejaVuSans-33" transform="translate(63.378906 -16.40625) scale(0.7)"/>
    </g>
   </g>
   <g id="text_27">
    <!-- $n_4$ -->
    <g style="fill: #0000ff" transform="translate(349.495392 300.518128) scale(0.1 -0.1)">
     <use xlink:href="#DejaVuSans-Oblique-6e"/>
     <use xlink:href="#DejaVuSans-34" transform="translate(63.378906 -16.40625) scale(0.7)"/>
    </g>
   </g>
   <g id="text_28">
    <!-- $n_5$ -->
    <g style="fill: #0000ff" transform="translate(389.17116 360.03178) scale(0.1 -0.1)">
     <use xlink:href="#DejaVuSans-Oblique-6e"/>
     <use xlink:href="#DejaVuSans-35" transform="translate(63.378906 -16.40625) scale(0.7)"/>
    </g>
   </g>
   <g id="text_29">
    <!-- $n_6$ -->
    <g style="fill: #0000ff" transform="translate(508.198464 181.490824) scale(0.1 -0.1)">
     <use xlink:href="#DejaVuSans-Oblique-6e"/>
     <use xlink:href="#DejaVuSans-36" transform="translate(63.378906 -16.40625) scale(0.7)"/>
    </g>
   </g>
   <g id="patch_19">
    <path d="M 156.666553 274.42802 
L 164.79215 255.129727 
L 168.347099 257.795939 
L 184.725256 235.958396 
L 185.740956 236.720171 
L 169.362799 258.557713 
L 172.917747 261.223925 
z
" clip-path="url(#p8aef5a9749)" style="fill: #8b0000; stroke: #8b0000; stroke-linejoin: miter"/>
   </g>
   <g id="patch_20">
    <path d="M 209.038567 413.689966 
L 229.35256 408.611468 
L 229.35256 413.055154 
L 256.649488 413.055154 
L 256.649488 414.324778 
L 229.35256 414.324778 
L 229.35256 418.768464 
z
" clip-path="url(#p8aef5a9749)" style="fill: #8b0000; stroke: #8b0000; stroke-linejoin: miter"/>
   </g>
   <g id="patch_21">
    <path d="M 275.693857 363.698498 
L 280.772355 384.012491 
L 276.328669 384.012491 
L 276.328669 411.30942 
L 275.059044 411.30942 
L 275.059044 384.012491 
L 270.615358 384.012491 
z
" clip-path="url(#p8aef5a9749)" style="fill: #8b0000; stroke: #8b0000; stroke-linejoin: miter"/>
   </g>
   <g id="patch_22">
    <path d="M 513.748464 185.157543 
L 508.669966 164.843549 
L 513.113652 164.843549 
L 513.113652 121.676314 
L 514.383276 121.676314 
L 514.383276 164.843549 
L 518.826962 164.843549 
z
" clip-path="url(#p8aef5a9749)" style="fill: #8b0000; stroke: #8b0000; stroke-linejoin: miter"/>
   </g>
  </g>
 </g>
 <defs>
  <clipPath id="p8aef5a9749">
   <rect x="7.2" y="7.2" width="613.8" height="609.84"/>
  </clipPath>
 </defs>
</svg>
