<?xml version="1.0" encoding="utf-8" standalone="no"?>
<!DOCTYPE svg PUBLIC "-//W3C//DTD SVG 1.1//EN"
  "http://www.w3.org/Graphics/SVG/1.1/DTD/svg11.dtd">
<svg xmlns:xlink="http://www.w3.org/1999/xlink" width="460.8pt" height="345.6pt" viewBox="0 0 460.8 345.6" xmlns="http://www.w3.org/2000/svg" version="1.1">
 <metadata>
  <rdf:RDF xmlns:dc="http://purl.org/dc/elements/1.1/" xmlns:cc="http://creativecommons.org/ns#" xmlns:rdf="http://www.w3.org/1999/02/22-rdf-syntax-ns#">
   <cc:Work>
    <dc:type rdf:resource="http://purl.org/dc/dcmitype/StillImage"/>
    <dc:date>2024-09-06T22:07:36.967466</dc:date>
    <dc:format>image/svg+xml</dc:format>
    <dc:creator>
     <cc:Agent>
      <dc:title>Matplotlib v3.8.4, https://matplotlib.org/</dc:title>
     </cc:Agent>
    </dc:creator>
   </cc:Work>
  </rdf:RDF>
 </metadata>
 <defs>
  <style type="text/css">*{stroke-linejoin: round; stroke-linecap: butt}</style>
 </defs>
 <g id="figure_1">
  <g id="patch_1">
   <path d="M 0 345.6 
L 460.8 345.6 
L 460.8 0 
L 0 0 
z
" style="fill: #ffffff"/>
  </g>
  <g id="axes_1">
   <g id="patch_2">
    <path d="M 57.6 307.584 
L 414.72 307.584 
L 414.72 41.472 
L 57.6 41.472 
z
" style="fill: #ffffff"/>
   </g>
   <g id="matplotlib.axis_1">
    <g id="xtick_1">
     <g id="line2d_1">
      <path d="M 74.876633 307.584 
L 74.876633 41.472 
" clip-path="url(#p5de3e6f56e)" style="fill: none; stroke: #b0b0b0; stroke-width: 0.8; stroke-linecap: square"/>
     </g>
    </g>
    <g id="xtick_2">
     <g id="line2d_2">
      <path d="M 127.071897 307.584 
L 127.071897 41.472 
" clip-path="url(#p5de3e6f56e)" style="fill: none; stroke: #b0b0b0; stroke-width: 0.8; stroke-linecap: square"/>
     </g>
    </g>
    <g id="xtick_3">
     <g id="line2d_3">
      <path d="M 179.267162 307.584 
L 179.267162 41.472 
" clip-path="url(#p5de3e6f56e)" style="fill: none; stroke: #b0b0b0; stroke-width: 0.8; stroke-linecap: square"/>
     </g>
    </g>
    <g id="xtick_4">
     <g id="line2d_4">
      <path d="M 231.462426 307.584 
L 231.462426 41.472 
" clip-path="url(#p5de3e6f56e)" style="fill: none; stroke: #b0b0b0; stroke-width: 0.8; stroke-linecap: square"/>
     </g>
    </g>
    <g id="xtick_5">
     <g id="line2d_5">
      <path d="M 283.657691 307.584 
L 283.657691 41.472 
" clip-path="url(#p5de3e6f56e)" style="fill: none; stroke: #b0b0b0; stroke-width: 0.8; stroke-linecap: square"/>
     </g>
    </g>
    <g id="xtick_6">
     <g id="line2d_6">
      <path d="M 335.852955 307.584 
L 335.852955 41.472 
" clip-path="url(#p5de3e6f56e)" style="fill: none; stroke: #b0b0b0; stroke-width: 0.8; stroke-linecap: square"/>
     </g>
    </g>
    <g id="xtick_7">
     <g id="line2d_7">
      <path d="M 388.04822 307.584 
L 388.04822 41.472 
" clip-path="url(#p5de3e6f56e)" style="fill: none; stroke: #b0b0b0; stroke-width: 0.8; stroke-linecap: square"/>
     </g>
    </g>
   </g>
   <g id="matplotlib.axis_2">
    <g id="ytick_1">
     <g id="line2d_8">
      <path d="M 57.6 300.318588 
L 414.72 300.318588 
" clip-path="url(#p5de3e6f56e)" style="fill: none; stroke: #b0b0b0; stroke-width: 0.8; stroke-linecap: square"/>
     </g>
    </g>
    <g id="ytick_2">
     <g id="line2d_9">
      <path d="M 57.6 248.123323 
L 414.72 248.123323 
" clip-path="url(#p5de3e6f56e)" style="fill: none; stroke: #b0b0b0; stroke-width: 0.8; stroke-linecap: square"/>
     </g>
    </g>
    <g id="ytick_3">
     <g id="line2d_10">
      <path d="M 57.6 195.928058 
L 414.72 195.928058 
" clip-path="url(#p5de3e6f56e)" style="fill: none; stroke: #b0b0b0; stroke-width: 0.8; stroke-linecap: square"/>
     </g>
    </g>
    <g id="ytick_4">
     <g id="line2d_11">
      <path d="M 57.6 143.732794 
L 414.72 143.732794 
" clip-path="url(#p5de3e6f56e)" style="fill: none; stroke: #b0b0b0; stroke-width: 0.8; stroke-linecap: square"/>
     </g>
    </g>
    <g id="ytick_5">
     <g id="line2d_12">
      <path d="M 57.6 91.537529 
L 414.72 91.537529 
" clip-path="url(#p5de3e6f56e)" style="fill: none; stroke: #b0b0b0; stroke-width: 0.8; stroke-linecap: square"/>
     </g>
    </g>
   </g>
   <g id="line2d_13">
    <path d="M 179.267162 248.123323 
L 74.876633 91.537529 
" clip-path="url(#p5de3e6f56e)" style="fill: none; stroke: #000000; stroke-width: 1.5; stroke-linecap: square"/>
   </g>
   <g id="line2d_14">
    <path d="M 74.876633 91.537529 
L 231.462426 208.976875 
" clip-path="url(#p5de3e6f56e)" style="fill: none; stroke: #000000; stroke-width: 1.5; stroke-linecap: square"/>
   </g>
   <g id="line2d_15">
    <path d="M 179.267162 248.123323 
L 231.462426 208.976875 
" clip-path="url(#p5de3e6f56e)" style="fill: none; stroke: #000000; stroke-width: 1.5; stroke-linecap: square"/>
   </g>
   <g id="line2d_16">
    <path d="M 283.657691 248.123323 
L 231.462426 208.976875 
" clip-path="url(#p5de3e6f56e)" style="fill: none; stroke: #000000; stroke-width: 1.5; stroke-linecap: square"/>
   </g>
   <g id="line2d_17">
    <path d="M 283.657691 248.123323 
L 283.657691 169.830426 
" clip-path="url(#p5de3e6f56e)" style="fill: none; stroke: #000000; stroke-width: 1.5; stroke-linecap: square"/>
   </g>
   <g id="line2d_18">
    <path d="M 283.657691 169.830426 
L 231.462426 208.976875 
" clip-path="url(#p5de3e6f56e)" style="fill: none; stroke: #000000; stroke-width: 1.5; stroke-linecap: square"/>
   </g>
   <g id="line2d_19">
    <path d="M 283.657691 248.123323 
L 309.755323 208.976875 
" clip-path="url(#p5de3e6f56e)" style="fill: none; stroke: #000000; stroke-width: 1.5; stroke-linecap: square"/>
   </g>
   <g id="line2d_20">
    <path d="M 309.755323 208.976875 
L 283.657691 169.830426 
" clip-path="url(#p5de3e6f56e)" style="fill: none; stroke: #000000; stroke-width: 1.5; stroke-linecap: square"/>
   </g>
   <g id="line2d_21">
    <path d="M 309.755323 208.976875 
L 388.04822 91.537529 
" clip-path="url(#p5de3e6f56e)" style="fill: none; stroke: #000000; stroke-width: 1.5; stroke-linecap: square"/>
   </g>
   <g id="line2d_22">
    <path d="M 388.04822 91.537529 
L 283.657691 169.830426 
" clip-path="url(#p5de3e6f56e)" style="fill: none; stroke: #000000; stroke-width: 1.5; stroke-linecap: square"/>
   </g>
   <g id="line2d_23">
    <path d="M 74.876633 258.562376 
L 179.267162 258.562376 
L 231.462426 258.562376 
L 283.657691 258.562376 
L 309.755323 258.562376 
L 388.04822 258.562376 
" clip-path="url(#p5de3e6f56e)" style="fill: none; stroke: #000000; stroke-width: 1.5; stroke-linecap: square"/>
    <defs>
     <path id="m0205d7e41e" d="M 0 3 
L 0 -3 
" style="stroke: #000000"/>
    </defs>
    <g clip-path="url(#p5de3e6f56e)">
     <use xlink:href="#m0205d7e41e" x="74.876633" y="258.562376" style="stroke: #000000"/>
     <use xlink:href="#m0205d7e41e" x="179.267162" y="258.562376" style="stroke: #000000"/>
     <use xlink:href="#m0205d7e41e" x="231.462426" y="258.562376" style="stroke: #000000"/>
     <use xlink:href="#m0205d7e41e" x="283.657691" y="258.562376" style="stroke: #000000"/>
     <use xlink:href="#m0205d7e41e" x="309.755323" y="258.562376" style="stroke: #000000"/>
     <use xlink:href="#m0205d7e41e" x="388.04822" y="258.562376" style="stroke: #000000"/>
    </g>
   </g>
   <g id="line2d_24">
    <path d="M 398.487273 248.123323 
L 398.487273 208.976875 
L 398.487273 169.830426 
L 398.487273 91.537529 
" clip-path="url(#p5de3e6f56e)" style="fill: none; stroke: #000000; stroke-width: 1.5; stroke-linecap: square"/>
    <defs>
     <path id="mf865a95063" d="M 3 0 
L -3 -0 
" style="stroke: #000000"/>
    </defs>
    <g clip-path="url(#p5de3e6f56e)">
     <use xlink:href="#mf865a95063" x="398.487273" y="248.123323" style="stroke: #000000"/>
     <use xlink:href="#mf865a95063" x="398.487273" y="208.976875" style="stroke: #000000"/>
     <use xlink:href="#mf865a95063" x="398.487273" y="169.830426" style="stroke: #000000"/>
     <use xlink:href="#mf865a95063" x="398.487273" y="91.537529" style="stroke: #000000"/>
    </g>
   </g>
   <g id="text_1">
    <!-- $m_0$ -->
    <g transform="translate(116.845764 167.934433) rotate(-303.690068) scale(0.1 -0.1)">
     <defs>
      <path id="DejaVuSans-Oblique-6d" d="M 5747 2113 
L 5338 0 
L 4763 0 
L 5166 2094 
Q 5191 2228 5203 2325 
Q 5216 2422 5216 2491 
Q 5216 2772 5059 2928 
Q 4903 3084 4622 3084 
Q 4203 3084 3875 2770 
Q 3547 2456 3450 1953 
L 3066 0 
L 2491 0 
L 2900 2094 
Q 2925 2209 2937 2307 
Q 2950 2406 2950 2484 
Q 2950 2769 2794 2926 
Q 2638 3084 2363 3084 
Q 1938 3084 1609 2770 
Q 1281 2456 1184 1953 
L 800 0 
L 225 0 
L 909 3500 
L 1484 3500 
L 1375 2956 
Q 1609 3263 1923 3423 
Q 2238 3584 2597 3584 
Q 2978 3584 3223 3384 
Q 3469 3184 3519 2828 
Q 3781 3197 4126 3390 
Q 4472 3584 4856 3584 
Q 5306 3584 5551 3325 
Q 5797 3066 5797 2591 
Q 5797 2488 5784 2364 
Q 5772 2241 5747 2113 
z
" transform="scale(0.015625)"/>
      <path id="DejaVuSans-30" d="M 2034 4250 
Q 1547 4250 1301 3770 
Q 1056 3291 1056 2328 
Q 1056 1369 1301 889 
Q 1547 409 2034 409 
Q 2525 409 2770 889 
Q 3016 1369 3016 2328 
Q 3016 3291 2770 3770 
Q 2525 4250 2034 4250 
z
M 2034 4750 
Q 2819 4750 3233 4129 
Q 3647 3509 3647 2328 
Q 3647 1150 3233 529 
Q 2819 -91 2034 -91 
Q 1250 -91 836 529 
Q 422 1150 422 2328 
Q 422 3509 836 4129 
Q 1250 4750 2034 4750 
z
" transform="scale(0.015625)"/>
     </defs>
     <use xlink:href="#DejaVuSans-Oblique-6d"/>
     <use xlink:href="#DejaVuSans-30" transform="translate(97.412109 -16.40625) scale(0.7)"/>
    </g>
   </g>
   <g id="text_2">
    <!-- $m_1$ -->
    <g transform="translate(142.89536 151.872761) rotate(-323.130102) scale(0.1 -0.1)">
     <defs>
      <path id="DejaVuSans-31" d="M 794 531 
L 1825 531 
L 1825 4091 
L 703 3866 
L 703 4441 
L 1819 4666 
L 2450 4666 
L 2450 531 
L 3481 531 
L 3481 0 
L 794 0 
L 794 531 
z
" transform="scale(0.015625)"/>
     </defs>
     <use xlink:href="#DejaVuSans-Oblique-6d"/>
     <use xlink:href="#DejaVuSans-31" transform="translate(97.412109 -16.40625) scale(0.7)"/>
    </g>
   </g>
   <g id="text_3">
    <!-- $m_2$ -->
    <g transform="translate(204.038963 238.865658) rotate(-36.869898) scale(0.1 -0.1)">
     <defs>
      <path id="DejaVuSans-32" d="M 1228 531 
L 3431 531 
L 3431 0 
L 469 0 
L 469 531 
Q 828 903 1448 1529 
Q 2069 2156 2228 2338 
Q 2531 2678 2651 2914 
Q 2772 3150 2772 3378 
Q 2772 3750 2511 3984 
Q 2250 4219 1831 4219 
Q 1534 4219 1204 4116 
Q 875 4013 500 3803 
L 500 4441 
Q 881 4594 1212 4672 
Q 1544 4750 1819 4750 
Q 2544 4750 2975 4387 
Q 3406 4025 3406 3419 
Q 3406 3131 3298 2873 
Q 3191 2616 2906 2266 
Q 2828 2175 2409 1742 
Q 1991 1309 1228 531 
z
" transform="scale(0.015625)"/>
     </defs>
     <use xlink:href="#DejaVuSans-Oblique-6d"/>
     <use xlink:href="#DejaVuSans-32" transform="translate(97.412109 -16.40625) scale(0.7)"/>
    </g>
   </g>
   <g id="text_4">
    <!-- $m_3$ -->
    <g transform="translate(247.285889 230.165658) rotate(-323.130102) scale(0.1 -0.1)">
     <defs>
      <path id="DejaVuSans-33" d="M 2597 2516 
Q 3050 2419 3304 2112 
Q 3559 1806 3559 1356 
Q 3559 666 3084 287 
Q 2609 -91 1734 -91 
Q 1441 -91 1130 -33 
Q 819 25 488 141 
L 488 750 
Q 750 597 1062 519 
Q 1375 441 1716 441 
Q 2309 441 2620 675 
Q 2931 909 2931 1356 
Q 2931 1769 2642 2001 
Q 2353 2234 1838 2234 
L 1294 2234 
L 1294 2753 
L 1863 2753 
Q 2328 2753 2575 2939 
Q 2822 3125 2822 3475 
Q 2822 3834 2567 4026 
Q 2313 4219 1838 4219 
Q 1578 4219 1281 4162 
Q 984 4106 628 3988 
L 628 4550 
Q 988 4650 1302 4700 
Q 1616 4750 1894 4750 
Q 2613 4750 3031 4423 
Q 3450 4097 3450 3541 
Q 3450 3153 3228 2886 
Q 3006 2619 2597 2516 
z
" transform="scale(0.015625)"/>
     </defs>
     <use xlink:href="#DejaVuSans-Oblique-6d"/>
     <use xlink:href="#DejaVuSans-33" transform="translate(97.412109 -16.40625) scale(0.7)"/>
    </g>
   </g>
   <g id="text_5">
    <!-- $m_4$ -->
    <g transform="translate(291.11464 216.226875) rotate(-90) scale(0.1 -0.1)">
     <defs>
      <path id="DejaVuSans-34" d="M 2419 4116 
L 825 1625 
L 2419 1625 
L 2419 4116 
z
M 2253 4666 
L 3047 4666 
L 3047 1625 
L 3713 1625 
L 3713 1100 
L 3047 1100 
L 3047 0 
L 2419 0 
L 2419 1100 
L 313 1100 
L 313 1709 
L 2253 4666 
z
" transform="scale(0.015625)"/>
     </defs>
     <use xlink:href="#DejaVuSans-Oblique-6d"/>
     <use xlink:href="#DejaVuSans-34" transform="translate(97.412109 -16.40625) scale(0.7)"/>
    </g>
   </g>
   <g id="text_6">
    <!-- $m_5$ -->
    <g transform="translate(256.234228 199.719209) rotate(-36.869898) scale(0.1 -0.1)">
     <defs>
      <path id="DejaVuSans-35" d="M 691 4666 
L 3169 4666 
L 3169 4134 
L 1269 4134 
L 1269 2991 
Q 1406 3038 1543 3061 
Q 1681 3084 1819 3084 
Q 2600 3084 3056 2656 
Q 3513 2228 3513 1497 
Q 3513 744 3044 326 
Q 2575 -91 1722 -91 
Q 1428 -91 1123 -41 
Q 819 9 494 109 
L 494 744 
Q 775 591 1075 516 
Q 1375 441 1709 441 
Q 2250 441 2565 725 
Q 2881 1009 2881 1497 
Q 2881 1984 2565 2268 
Q 2250 2553 1709 2553 
Q 1456 2553 1204 2497 
Q 953 2441 691 2322 
L 691 4666 
z
" transform="scale(0.015625)"/>
     </defs>
     <use xlink:href="#DejaVuSans-Oblique-6d"/>
     <use xlink:href="#DejaVuSans-35" transform="translate(97.412109 -16.40625) scale(0.7)"/>
    </g>
   </g>
   <g id="text_7">
    <!-- $m_6$ -->
    <g transform="translate(298.889487 238.718834) rotate(-56.309932) scale(0.1 -0.1)">
     <defs>
      <path id="DejaVuSans-36" d="M 2113 2584 
Q 1688 2584 1439 2293 
Q 1191 2003 1191 1497 
Q 1191 994 1439 701 
Q 1688 409 2113 409 
Q 2538 409 2786 701 
Q 3034 994 3034 1497 
Q 3034 2003 2786 2293 
Q 2538 2584 2113 2584 
z
M 3366 4563 
L 3366 3988 
Q 3128 4100 2886 4159 
Q 2644 4219 2406 4219 
Q 1781 4219 1451 3797 
Q 1122 3375 1075 2522 
Q 1259 2794 1537 2939 
Q 1816 3084 2150 3084 
Q 2853 3084 3261 2657 
Q 3669 2231 3669 1497 
Q 3669 778 3244 343 
Q 2819 -91 2113 -91 
Q 1303 -91 875 529 
Q 447 1150 447 2328 
Q 447 3434 972 4092 
Q 1497 4750 2381 4750 
Q 2619 4750 2861 4703 
Q 3103 4656 3366 4563 
z
" transform="scale(0.015625)"/>
     </defs>
     <use xlink:href="#DejaVuSans-Oblique-6d"/>
     <use xlink:href="#DejaVuSans-36" transform="translate(97.412109 -16.40625) scale(0.7)"/>
    </g>
   </g>
   <g id="text_8">
    <!-- $m_7$ -->
    <g transform="translate(286.480374 187.507657) rotate(-303.690068) scale(0.1 -0.1)">
     <defs>
      <path id="DejaVuSans-37" d="M 525 4666 
L 3525 4666 
L 3525 4397 
L 1831 0 
L 1172 0 
L 2766 4134 
L 525 4134 
L 525 4666 
z
" transform="scale(0.015625)"/>
     </defs>
     <use xlink:href="#DejaVuSans-Oblique-6d"/>
     <use xlink:href="#DejaVuSans-37" transform="translate(97.412109 -16.40625) scale(0.7)"/>
    </g>
   </g>
   <g id="text_9">
    <!-- $m_8$ -->
    <g transform="translate(351.084751 160.425938) rotate(-56.309932) scale(0.1 -0.1)">
     <defs>
      <path id="DejaVuSans-38" d="M 2034 2216 
Q 1584 2216 1326 1975 
Q 1069 1734 1069 1313 
Q 1069 891 1326 650 
Q 1584 409 2034 409 
Q 2484 409 2743 651 
Q 3003 894 3003 1313 
Q 3003 1734 2745 1975 
Q 2488 2216 2034 2216 
z
M 1403 2484 
Q 997 2584 770 2862 
Q 544 3141 544 3541 
Q 544 4100 942 4425 
Q 1341 4750 2034 4750 
Q 2731 4750 3128 4425 
Q 3525 4100 3525 3541 
Q 3525 3141 3298 2862 
Q 3072 2584 2669 2484 
Q 3125 2378 3379 2068 
Q 3634 1759 3634 1313 
Q 3634 634 3220 271 
Q 2806 -91 2034 -91 
Q 1263 -91 848 271 
Q 434 634 434 1313 
Q 434 1759 690 2068 
Q 947 2378 1403 2484 
z
M 1172 3481 
Q 1172 3119 1398 2916 
Q 1625 2713 2034 2713 
Q 2441 2713 2670 2916 
Q 2900 3119 2900 3481 
Q 2900 3844 2670 4047 
Q 2441 4250 2034 4250 
Q 1625 4250 1398 4047 
Q 1172 3844 1172 3481 
z
" transform="scale(0.015625)"/>
     </defs>
     <use xlink:href="#DejaVuSans-Oblique-6d"/>
     <use xlink:href="#DejaVuSans-38" transform="translate(97.412109 -16.40625) scale(0.7)"/>
    </g>
   </g>
   <g id="text_10">
    <!-- $m_9$ -->
    <g transform="translate(334.527125 140.999537) rotate(-36.869898) scale(0.1 -0.1)">
     <defs>
      <path id="DejaVuSans-39" d="M 703 97 
L 703 672 
Q 941 559 1184 500 
Q 1428 441 1663 441 
Q 2288 441 2617 861 
Q 2947 1281 2994 2138 
Q 2813 1869 2534 1725 
Q 2256 1581 1919 1581 
Q 1219 1581 811 2004 
Q 403 2428 403 3163 
Q 403 3881 828 4315 
Q 1253 4750 1959 4750 
Q 2769 4750 3195 4129 
Q 3622 3509 3622 2328 
Q 3622 1225 3098 567 
Q 2575 -91 1691 -91 
Q 1453 -91 1209 -44 
Q 966 3 703 97 
z
M 1959 2075 
Q 2384 2075 2632 2365 
Q 2881 2656 2881 3163 
Q 2881 3666 2632 3958 
Q 2384 4250 1959 4250 
Q 1534 4250 1286 3958 
Q 1038 3666 1038 3163 
Q 1038 2656 1286 2365 
Q 1534 2075 1959 2075 
z
" transform="scale(0.015625)"/>
     </defs>
     <use xlink:href="#DejaVuSans-Oblique-6d"/>
     <use xlink:href="#DejaVuSans-39" transform="translate(97.412109 -16.40625) scale(0.7)"/>
    </g>
   </g>
   <g id="text_11">
    <!-- $10$ -->
    <g transform="translate(121.951897 267.337679) scale(0.08 -0.08)">
     <use xlink:href="#DejaVuSans-31" transform="translate(0 0.78125)"/>
     <use xlink:href="#DejaVuSans-30" transform="translate(63.623047 0.78125)"/>
    </g>
   </g>
   <g id="text_12">
    <!-- $5$ -->
    <g transform="translate(202.804794 267.337679) scale(0.08 -0.08)">
     <use xlink:href="#DejaVuSans-35" transform="translate(0 0.09375)"/>
    </g>
   </g>
   <g id="text_13">
    <!-- $5$ -->
    <g transform="translate(255.000058 267.337679) scale(0.08 -0.08)">
     <use xlink:href="#DejaVuSans-35" transform="translate(0 0.09375)"/>
    </g>
   </g>
   <g id="text_14">
    <!-- $5/2$ -->
    <g transform="translate(290.386507 267.337679) scale(0.08 -0.08)">
     <defs>
      <path id="DejaVuSans-2f" d="M 1625 4666 
L 2156 4666 
L 531 -594 
L 0 -594 
L 1625 4666 
z
" transform="scale(0.015625)"/>
     </defs>
     <use xlink:href="#DejaVuSans-35" transform="translate(0 0.78125)"/>
     <use xlink:href="#DejaVuSans-2f" transform="translate(63.623047 0.78125)"/>
     <use xlink:href="#DejaVuSans-32" transform="translate(93.689453 0.78125)"/>
    </g>
   </g>
   <g id="text_15">
    <!-- $15/2$ -->
    <g transform="translate(340.061771 267.337679) scale(0.08 -0.08)">
     <use xlink:href="#DejaVuSans-31" transform="translate(0 0.78125)"/>
     <use xlink:href="#DejaVuSans-35" transform="translate(63.623047 0.78125)"/>
     <use xlink:href="#DejaVuSans-2f" transform="translate(127.246094 0.78125)"/>
     <use xlink:href="#DejaVuSans-32" transform="translate(157.3125 0.78125)"/>
    </g>
   </g>
   <g id="text_16">
    <!-- $15/4$ -->
    <g transform="translate(399.926326 230.757599) scale(0.08 -0.08)">
     <use xlink:href="#DejaVuSans-31" transform="translate(0 0.09375)"/>
     <use xlink:href="#DejaVuSans-35" transform="translate(63.623047 0.09375)"/>
     <use xlink:href="#DejaVuSans-2f" transform="translate(127.246094 0.09375)"/>
     <use xlink:href="#DejaVuSans-34" transform="translate(160.9375 0.09375)"/>
    </g>
   </g>
   <g id="text_17">
    <!-- $15/4$ -->
    <g transform="translate(399.926326 191.61115) scale(0.08 -0.08)">
     <use xlink:href="#DejaVuSans-31" transform="translate(0 0.09375)"/>
     <use xlink:href="#DejaVuSans-35" transform="translate(63.623047 0.09375)"/>
     <use xlink:href="#DejaVuSans-2f" transform="translate(127.246094 0.09375)"/>
     <use xlink:href="#DejaVuSans-34" transform="translate(160.9375 0.09375)"/>
    </g>
   </g>
   <g id="text_18">
    <!-- $15/2$ -->
    <g transform="translate(400.086326 132.891478) scale(0.08 -0.08)">
     <use xlink:href="#DejaVuSans-31" transform="translate(0 0.78125)"/>
     <use xlink:href="#DejaVuSans-35" transform="translate(63.623047 0.78125)"/>
     <use xlink:href="#DejaVuSans-2f" transform="translate(127.246094 0.78125)"/>
     <use xlink:href="#DejaVuSans-32" transform="translate(157.3125 0.78125)"/>
    </g>
   </g>
   <g id="patch_3">
    <path d="M 179.267162 248.123323 
L 173.626917 256.907483 
L 184.907406 256.907483 
z
" clip-path="url(#p5de3e6f56e)" style="fill: #808080; stroke: #000000; stroke-linejoin: miter"/>
   </g>
   <g id="patch_4">
    <path d="M 179.267162 249.167228 
C 179.544009 249.167228 179.809554 249.057236 180.005314 248.861476 
C 180.201074 248.665715 180.311067 248.40017 180.311067 248.123323 
C 180.311067 247.846476 180.201074 247.580931 180.005314 247.38517 
C 179.809554 247.18941 179.544009 247.079418 179.267162 247.079418 
C 178.990315 247.079418 178.724769 247.18941 178.529009 247.38517 
C 178.333249 247.580931 178.223256 247.846476 178.223256 248.123323 
C 178.223256 248.40017 178.333249 248.665715 178.529009 248.861476 
C 178.724769 249.057236 178.990315 249.167228 179.267162 249.167228 
z
" clip-path="url(#p5de3e6f56e)" style="fill: #ffffff; stroke: #000000; stroke-linejoin: miter"/>
   </g>
   <g id="patch_5">
    <path d="M 283.657691 248.123323 
L 278.017446 256.907483 
L 289.297935 256.907483 
z
" clip-path="url(#p5de3e6f56e)" style="fill: #808080; stroke: #000000; stroke-linejoin: miter"/>
   </g>
   <g id="patch_6">
    <path d="M 283.657691 249.167228 
C 283.934538 249.167228 284.200083 249.057236 284.395843 248.861476 
C 284.591604 248.665715 284.701596 248.40017 284.701596 248.123323 
C 284.701596 247.846476 284.591604 247.580931 284.395843 247.38517 
C 284.200083 247.18941 283.934538 247.079418 283.657691 247.079418 
C 283.380844 247.079418 283.115299 247.18941 282.919538 247.38517 
C 282.723778 247.580931 282.613785 247.846476 282.613785 248.123323 
C 282.613785 248.40017 282.723778 248.665715 282.919538 248.861476 
C 283.115299 249.057236 283.380844 249.167228 283.657691 249.167228 
z
" clip-path="url(#p5de3e6f56e)" style="fill: #ffffff; stroke: #000000; stroke-linejoin: miter"/>
   </g>
   <g id="patch_7">
    <path d="M 179.267162 249.167228 
C 179.544009 249.167228 179.809554 249.057236 180.005314 248.861476 
C 180.201074 248.665715 180.311067 248.40017 180.311067 248.123323 
C 180.311067 247.846476 180.201074 247.580931 180.005314 247.38517 
C 179.809554 247.18941 179.544009 247.079418 179.267162 247.079418 
C 178.990315 247.079418 178.724769 247.18941 178.529009 247.38517 
C 178.333249 247.580931 178.223256 247.846476 178.223256 248.123323 
C 178.223256 248.40017 178.333249 248.665715 178.529009 248.861476 
C 178.724769 249.057236 178.990315 249.167228 179.267162 249.167228 
z
" clip-path="url(#p5de3e6f56e)" style="fill: #ffffff; stroke: #000000; stroke-linejoin: miter"/>
   </g>
   <g id="patch_8">
    <path d="M 74.876633 92.581435 
C 75.153479 92.581435 75.419025 92.471442 75.614785 92.275682 
C 75.810545 92.079922 75.920538 91.814376 75.920538 91.537529 
C 75.920538 91.260682 75.810545 90.995137 75.614785 90.799377 
C 75.419025 90.603617 75.153479 90.493624 74.876633 90.493624 
C 74.599786 90.493624 74.33424 90.603617 74.13848 90.799377 
C 73.94272 90.995137 73.832727 91.260682 73.832727 91.537529 
C 73.832727 91.814376 73.94272 92.079922 74.13848 92.275682 
C 74.33424 92.471442 74.599786 92.581435 74.876633 92.581435 
z
" clip-path="url(#p5de3e6f56e)" style="fill: #ffffff; stroke: #000000; stroke-linejoin: miter"/>
   </g>
   <g id="patch_9">
    <path d="M 74.876633 92.581435 
C 75.153479 92.581435 75.419025 92.471442 75.614785 92.275682 
C 75.810545 92.079922 75.920538 91.814376 75.920538 91.537529 
C 75.920538 91.260682 75.810545 90.995137 75.614785 90.799377 
C 75.419025 90.603617 75.153479 90.493624 74.876633 90.493624 
C 74.599786 90.493624 74.33424 90.603617 74.13848 90.799377 
C 73.94272 90.995137 73.832727 91.260682 73.832727 91.537529 
C 73.832727 91.814376 73.94272 92.079922 74.13848 92.275682 
C 74.33424 92.471442 74.599786 92.581435 74.876633 92.581435 
z
" clip-path="url(#p5de3e6f56e)" style="fill: #ffffff; stroke: #000000; stroke-linejoin: miter"/>
   </g>
   <g id="patch_10">
    <path d="M 231.462426 210.02078 
C 231.739273 210.02078 232.004818 209.910787 232.200579 209.715027 
C 232.396339 209.519267 232.506331 209.253722 232.506331 208.976875 
C 232.506331 208.700028 232.396339 208.434482 232.200579 208.238722 
C 232.004818 208.042962 231.739273 207.932969 231.462426 207.932969 
C 231.185579 207.932969 230.920034 208.042962 230.724274 208.238722 
C 230.528513 208.434482 230.418521 208.700028 230.418521 208.976875 
C 230.418521 209.253722 230.528513 209.519267 230.724274 209.715027 
C 230.920034 209.910787 231.185579 210.02078 231.462426 210.02078 
z
" clip-path="url(#p5de3e6f56e)" style="fill: #ffffff; stroke: #000000; stroke-linejoin: miter"/>
   </g>
   <g id="patch_11">
    <path d="M 231.462426 210.02078 
C 231.739273 210.02078 232.004818 209.910787 232.200579 209.715027 
C 232.396339 209.519267 232.506331 209.253722 232.506331 208.976875 
C 232.506331 208.700028 232.396339 208.434482 232.200579 208.238722 
C 232.004818 208.042962 231.739273 207.932969 231.462426 207.932969 
C 231.185579 207.932969 230.920034 208.042962 230.724274 208.238722 
C 230.528513 208.434482 230.418521 208.700028 230.418521 208.976875 
C 230.418521 209.253722 230.528513 209.519267 230.724274 209.715027 
C 230.920034 209.910787 231.185579 210.02078 231.462426 210.02078 
z
" clip-path="url(#p5de3e6f56e)" style="fill: #ffffff; stroke: #000000; stroke-linejoin: miter"/>
   </g>
   <g id="patch_12">
    <path d="M 283.657691 249.167228 
C 283.934538 249.167228 284.200083 249.057236 284.395843 248.861476 
C 284.591604 248.665715 284.701596 248.40017 284.701596 248.123323 
C 284.701596 247.846476 284.591604 247.580931 284.395843 247.38517 
C 284.200083 247.18941 283.934538 247.079418 283.657691 247.079418 
C 283.380844 247.079418 283.115299 247.18941 282.919538 247.38517 
C 282.723778 247.580931 282.613785 247.846476 282.613785 248.123323 
C 282.613785 248.40017 282.723778 248.665715 282.919538 248.861476 
C 283.115299 249.057236 283.380844 249.167228 283.657691 249.167228 
z
" clip-path="url(#p5de3e6f56e)" style="fill: #ffffff; stroke: #000000; stroke-linejoin: miter"/>
   </g>
   <g id="patch_13">
    <path d="M 283.657691 170.874331 
C 283.934538 170.874331 284.200083 170.764339 284.395843 170.568579 
C 284.591604 170.372818 284.701596 170.107273 284.701596 169.830426 
C 284.701596 169.553579 284.591604 169.288034 284.395843 169.092274 
C 284.200083 168.896513 283.934538 168.786521 283.657691 168.786521 
C 283.380844 168.786521 283.115299 168.896513 282.919538 169.092274 
C 282.723778 169.288034 282.613785 169.553579 282.613785 169.830426 
C 282.613785 170.107273 282.723778 170.372818 282.919538 170.568579 
C 283.115299 170.764339 283.380844 170.874331 283.657691 170.874331 
z
" clip-path="url(#p5de3e6f56e)" style="fill: #ffffff; stroke: #000000; stroke-linejoin: miter"/>
   </g>
   <g id="patch_14">
    <path d="M 283.657691 170.874331 
C 283.934538 170.874331 284.200083 170.764339 284.395843 170.568579 
C 284.591604 170.372818 284.701596 170.107273 284.701596 169.830426 
C 284.701596 169.553579 284.591604 169.288034 284.395843 169.092274 
C 284.200083 168.896513 283.934538 168.786521 283.657691 168.786521 
C 283.380844 168.786521 283.115299 168.896513 282.919538 169.092274 
C 282.723778 169.288034 282.613785 169.553579 282.613785 169.830426 
C 282.613785 170.107273 282.723778 170.372818 282.919538 170.568579 
C 283.115299 170.764339 283.380844 170.874331 283.657691 170.874331 
z
" clip-path="url(#p5de3e6f56e)" style="fill: #ffffff; stroke: #000000; stroke-linejoin: miter"/>
   </g>
   <g id="patch_15">
    <path d="M 309.755323 210.02078 
C 310.03217 210.02078 310.297715 209.910787 310.493476 209.715027 
C 310.689236 209.519267 310.799228 209.253722 310.799228 208.976875 
C 310.799228 208.700028 310.689236 208.434482 310.493476 208.238722 
C 310.297715 208.042962 310.03217 207.932969 309.755323 207.932969 
C 309.478476 207.932969 309.212931 208.042962 309.01717 208.238722 
C 308.82141 208.434482 308.711418 208.700028 308.711418 208.976875 
C 308.711418 209.253722 308.82141 209.519267 309.01717 209.715027 
C 309.212931 209.910787 309.478476 210.02078 309.755323 210.02078 
z
" clip-path="url(#p5de3e6f56e)" style="fill: #ffffff; stroke: #000000; stroke-linejoin: miter"/>
   </g>
   <g id="patch_16">
    <path d="M 309.755323 210.02078 
C 310.03217 210.02078 310.297715 209.910787 310.493476 209.715027 
C 310.689236 209.519267 310.799228 209.253722 310.799228 208.976875 
C 310.799228 208.700028 310.689236 208.434482 310.493476 208.238722 
C 310.297715 208.042962 310.03217 207.932969 309.755323 207.932969 
C 309.478476 207.932969 309.212931 208.042962 309.01717 208.238722 
C 308.82141 208.434482 308.711418 208.700028 308.711418 208.976875 
C 308.711418 209.253722 308.82141 209.519267 309.01717 209.715027 
C 309.212931 209.910787 309.478476 210.02078 309.755323 210.02078 
z
" clip-path="url(#p5de3e6f56e)" style="fill: #ffffff; stroke: #000000; stroke-linejoin: miter"/>
   </g>
   <g id="patch_17">
    <path d="M 388.04822 92.581435 
C 388.325067 92.581435 388.590612 92.471442 388.786372 92.275682 
C 388.982133 92.079922 389.092125 91.814376 389.092125 91.537529 
C 389.092125 91.260682 388.982133 90.995137 388.786372 90.799377 
C 388.590612 90.603617 388.325067 90.493624 388.04822 90.493624 
C 387.771373 90.493624 387.505828 90.603617 387.310067 90.799377 
C 387.114307 90.995137 387.004315 91.260682 387.004315 91.537529 
C 387.004315 91.814376 387.114307 92.079922 387.310067 92.275682 
C 387.505828 92.471442 387.771373 92.581435 388.04822 92.581435 
z
" clip-path="url(#p5de3e6f56e)" style="fill: #ffffff; stroke: #000000; stroke-linejoin: miter"/>
   </g>
   <g id="patch_18">
    <path d="M 388.04822 92.581435 
C 388.325067 92.581435 388.590612 92.471442 388.786372 92.275682 
C 388.982133 92.079922 389.092125 91.814376 389.092125 91.537529 
C 389.092125 91.260682 388.982133 90.995137 388.786372 90.799377 
C 388.590612 90.603617 388.325067 90.493624 388.04822 90.493624 
C 387.771373 90.493624 387.505828 90.603617 387.310067 90.799377 
C 387.114307 90.995137 387.004315 91.260682 387.004315 91.537529 
C 387.004315 91.814376 387.114307 92.079922 387.310067 92.275682 
C 387.505828 92.471442 387.771373 92.581435 388.04822 92.581435 
z
" clip-path="url(#p5de3e6f56e)" style="fill: #ffffff; stroke: #000000; stroke-linejoin: miter"/>
   </g>
   <g id="text_19">
    <!-- $n_0$ -->
    <g style="fill: #0000ff" transform="translate(173.717162 244.99973) scale(0.1 -0.1)">
     <defs>
      <path id="DejaVuSans-Oblique-6e" d="M 3566 2113 
L 3156 0 
L 2578 0 
L 2988 2091 
Q 3016 2238 3031 2350 
Q 3047 2463 3047 2528 
Q 3047 2791 2881 2937 
Q 2716 3084 2419 3084 
Q 1956 3084 1622 2776 
Q 1288 2469 1184 1941 
L 800 0 
L 225 0 
L 903 3500 
L 1478 3500 
L 1363 2950 
Q 1603 3253 1940 3418 
Q 2278 3584 2650 3584 
Q 3113 3584 3367 3334 
Q 3622 3084 3622 2631 
Q 3622 2519 3608 2391 
Q 3594 2263 3566 2113 
z
" transform="scale(0.015625)"/>
     </defs>
     <use xlink:href="#DejaVuSans-Oblique-6e"/>
     <use xlink:href="#DejaVuSans-30" transform="translate(63.378906 -16.40625) scale(0.7)"/>
    </g>
   </g>
   <g id="text_20">
    <!-- $n_1$ -->
    <g style="fill: #0000ff" transform="translate(69.326633 88.413937) scale(0.1 -0.1)">
     <use xlink:href="#DejaVuSans-Oblique-6e"/>
     <use xlink:href="#DejaVuSans-31" transform="translate(63.378906 -16.40625) scale(0.7)"/>
    </g>
   </g>
   <g id="text_21">
    <!-- $n_2$ -->
    <g style="fill: #0000ff" transform="translate(225.912426 205.853282) scale(0.1 -0.1)">
     <use xlink:href="#DejaVuSans-Oblique-6e"/>
     <use xlink:href="#DejaVuSans-32" transform="translate(63.378906 -16.40625) scale(0.7)"/>
    </g>
   </g>
   <g id="text_22">
    <!-- $n_3$ -->
    <g style="fill: #0000ff" transform="translate(278.107691 244.99973) scale(0.1 -0.1)">
     <use xlink:href="#DejaVuSans-Oblique-6e"/>
     <use xlink:href="#DejaVuSans-33" transform="translate(63.378906 -16.40625) scale(0.7)"/>
    </g>
   </g>
   <g id="text_23">
    <!-- $n_4$ -->
    <g style="fill: #0000ff" transform="translate(278.107691 166.706833) scale(0.1 -0.1)">
     <use xlink:href="#DejaVuSans-Oblique-6e"/>
     <use xlink:href="#DejaVuSans-34" transform="translate(63.378906 -16.40625) scale(0.7)"/>
    </g>
   </g>
   <g id="text_24">
    <!-- $n_5$ -->
    <g style="fill: #0000ff" transform="translate(304.205323 205.853282) scale(0.1 -0.1)">
     <use xlink:href="#DejaVuSans-Oblique-6e"/>
     <use xlink:href="#DejaVuSans-35" transform="translate(63.378906 -16.40625) scale(0.7)"/>
    </g>
   </g>
   <g id="text_25">
    <!-- $n_6$ -->
    <g style="fill: #0000ff" transform="translate(382.49822 88.413937) scale(0.1 -0.1)">
     <use xlink:href="#DejaVuSans-Oblique-6e"/>
     <use xlink:href="#DejaVuSans-36" transform="translate(63.378906 -16.40625) scale(0.7)"/>
    </g>
   </g>
   <g id="patch_19">
    <path d="M 257.560058 228.550099 
L 260.900555 220.616419 
L 262.362023 221.712519 
L 276.141573 203.339786 
L 276.559135 203.652958 
L 262.779585 222.025691 
L 264.241052 223.121791 
z
" clip-path="url(#p5de3e6f56e)" style="fill: #8b0000; stroke: #8b0000; stroke-linejoin: miter"/>
   </g>
  </g>
 </g>
 <defs>
  <clipPath id="p5de3e6f56e">
   <rect x="57.6" y="41.472" width="357.12" height="266.112"/>
  </clipPath>
 </defs>
</svg>
